<?xml version="1.0" encoding="iso-8859-1"?>
<!-- Uploaded to: SVG Repo, www.svgrepo.com, Generator: SVG Repo Mixer Tools -->
<svg height="800px" width="800px" version="1.1" id="Layer_1" xmlns="http://www.w3.org/2000/svg" xmlns:xlink="http://www.w3.org/1999/xlink" 
	 viewBox="0 0 512.001 512.001" xml:space="preserve">
<path style="fill:#ACABB1;" d="M412.123,179.863c-3.655-2.111-7.202-3.721-10.725-5.166c0.885-5.056,1.414-10.473,1.43-16.312
	c0.153-53.944-37.752-119.625-84.698-146.728c-23.618-13.637-45.011-14.9-60.461-5.921l-30.317,17.618
	c-4.008-3.693-8.244-6.907-12.651-9.452c-12.407-7.163-23.644-7.829-31.757-3.115l-32.677,18.99
	c-15.09-5.864-28.603-5.359-38.931,0.643L49.818,66.17c0.041-0.024,0.086-0.043,0.127-0.067
	c-12.814,7.375-20.771,23.141-20.834,45.584c-0.128,45.055,31.556,99.935,70.744,122.56l250.288,144.504
	c19.826,11.447,37.773,12.444,50.697,4.824c-0.062,0.037-0.115,0.088-0.178,0.124l61.519-35.751
	c12.745-7.406,20.648-23.155,20.711-45.538C483.017,257.38,451.333,202.501,412.123,179.863z"/>
<path style="fill:#C6C5CB;" d="M256.612,47.406c46.945,27.104,84.851,92.784,84.698,146.728c-0.017,5.84-0.546,11.256-1.431,16.312
	c3.523,1.445,7.07,3.055,10.725,5.166c39.21,22.638,70.894,77.517,70.767,122.548c-0.128,45.056-32.019,63.229-71.23,40.591
	L99.854,234.248c-39.188-22.626-70.872-77.504-70.744-122.56c0.128-45.03,32.019-63.204,71.208-40.579
	c2.764,1.596,5.46,3.384,8.135,5.287c0.001-0.41-0.042-0.819-0.041-1.23c0.081-28.329,20.119-39.749,44.773-25.515
	c8.047,4.646,15.553,11.468,22.071,19.516C186.135,35.631,218.472,25.386,256.612,47.406z"/>
<g>
	<path style="fill:#59A4FF;" d="M151.008,291.507c-2.135-3.703-4.941-6.556-7.75-8.178c-2.809-1.622-5.621-2.01-7.771-0.783
		l-41.556,23.673l-19.477,11.319c-4.298,2.457-4.321,10.437-0.05,17.841c2.138,3.7,4.946,6.553,7.756,8.176
		c2.81,1.622,5.622,2.014,7.772,0.789l41.549-23.678l19.477-11.319C155.263,306.895,155.285,298.908,151.008,291.507z"/>
	<path style="fill:#59A4FF;" d="M233.348,339.046c-2.135-3.702-4.941-6.556-7.75-8.178c-2.81-1.622-5.624-2.013-7.777-0.786
		l-41.549,23.678l-19.477,11.319c-4.298,2.457-4.321,10.437-0.05,17.841c2.138,3.7,4.944,6.552,7.753,8.174
		c2.809,1.622,5.622,2.013,7.774,0.79l41.549-23.678l19.477-11.319C237.603,354.435,237.626,346.446,233.348,339.046z"/>
	<path style="fill:#59A4FF;" d="M315.689,386.586c-2.138-3.705-4.946-6.559-7.756-8.181c-2.81-1.623-5.622-2.012-7.771-0.783
		l-41.549,23.678l-19.477,11.319c-4.305,2.454-4.328,10.433-0.05,17.841c2.135,3.698,4.941,6.55,7.75,8.173
		c2.81,1.622,5.624,2.015,7.777,0.792l41.549-23.678l0,0l19.476-11.318C319.937,401.97,319.96,393.982,315.689,386.586z"/>
</g>
<g>
	<path style="fill:#9BC9FD;" d="M123.782,294.648c2.809,1.622,5.615,4.476,7.75,8.178c4.277,7.4,4.255,15.388-0.05,17.841
		l-41.549,23.678c-2.149,1.225-4.962,0.834-7.772-0.789c-2.81-1.622-5.617-4.476-7.756-8.176c-4.27-7.404-4.247-15.384,0.05-17.841
		l41.556-23.673C118.16,292.637,120.972,293.026,123.782,294.648z"/>
	<path style="fill:#9BC9FD;" d="M206.121,342.187c2.81,1.622,5.616,4.477,7.75,8.178c4.277,7.4,4.255,15.388-0.05,17.841
		l-41.549,23.678c-2.153,1.223-4.965,0.832-7.774-0.79c-2.809-1.622-5.615-4.474-7.753-8.174c-4.27-7.404-4.247-15.384,0.05-17.841
		l41.549-23.678C200.497,340.175,203.311,340.564,206.121,342.187z"/>
	<path style="fill:#9BC9FD;" d="M296.212,397.905c4.27,7.396,4.247,15.384-0.05,17.841l-41.549,23.677
		c-2.153,1.223-4.967,0.831-7.777-0.792c-2.81-1.622-5.616-4.475-7.751-8.173c-4.277-7.408-4.255-15.388,0.05-17.841l41.549-23.678
		c2.149-1.229,4.962-0.839,7.772,0.783C291.267,391.345,294.074,394.2,296.212,397.905z"/>
</g>
<g>
	<path style="fill:#59A4FF;" d="M129.194,363.367c-2.135-3.703-4.941-6.556-7.75-8.178c-2.809-1.622-5.621-2.01-7.771-0.783
		L72.118,378.08l-19.477,11.319c-4.298,2.457-4.321,10.437-0.05,17.841c2.138,3.7,4.946,6.553,7.756,8.176
		c2.81,1.622,5.622,2.014,7.772,0.789l41.549-23.678l19.477-11.319C133.449,378.754,133.471,370.767,129.194,363.367z"/>
	<path style="fill:#59A4FF;" d="M211.534,410.906c-2.135-3.702-4.941-6.556-7.75-8.178c-2.81-1.622-5.624-2.013-7.777-0.786
		l-41.549,23.678l-19.477,11.319c-4.298,2.457-4.321,10.437-0.05,17.841c2.138,3.7,4.944,6.552,7.753,8.174
		c2.809,1.622,5.622,2.013,7.774,0.79l41.549-23.678l19.477-11.319C215.789,426.295,215.812,418.306,211.534,410.906z"/>
	<path style="fill:#59A4FF;" d="M293.876,458.446c-2.138-3.705-4.946-6.559-7.756-8.181c-2.81-1.623-5.622-2.012-7.771-0.783
		L236.8,473.16l-19.477,11.319c-4.305,2.454-4.328,10.433-0.05,17.841c2.135,3.698,4.941,6.55,7.75,8.173
		c2.81,1.622,5.624,2.015,7.777,0.792l41.549-23.678l0,0l19.476-11.318C298.123,473.83,298.146,465.841,293.876,458.446z"/>
</g>
<g>
	<path style="fill:#9BC9FD;" d="M101.968,366.507c2.809,1.622,5.615,4.476,7.75,8.178c4.277,7.4,4.255,15.388-0.05,17.841
		l-41.549,23.678c-2.149,1.225-4.962,0.834-7.772-0.789c-2.81-1.622-5.617-4.476-7.756-8.176c-4.27-7.404-4.247-15.384,0.05-17.841
		l41.556-23.673C96.346,364.496,99.158,364.886,101.968,366.507z"/>
	<path style="fill:#9BC9FD;" d="M184.307,414.046c2.81,1.622,5.616,4.477,7.75,8.178c4.277,7.4,4.255,15.388-0.05,17.841
		l-41.549,23.678c-2.153,1.223-4.965,0.832-7.774-0.79c-2.809-1.622-5.615-4.474-7.753-8.174c-4.27-7.404-4.247-15.384,0.05-17.841
		l41.549-23.678C178.683,412.034,181.498,412.425,184.307,414.046z"/>
	<path style="fill:#9BC9FD;" d="M274.398,469.764c4.27,7.396,4.247,15.384-0.05,17.841l-41.549,23.678
		c-2.153,1.223-4.967,0.831-7.777-0.792c-2.81-1.622-5.616-4.475-7.751-8.173c-4.277-7.408-4.255-15.388,0.05-17.841l41.549-23.678
		c2.149-1.229,4.962-0.839,7.771,0.783C269.453,463.204,272.26,466.06,274.398,469.764z"/>
</g>
</svg>