<?xml version="1.0" encoding="iso-8859-1"?>
<!-- Uploaded to: SVG Repo, www.svgrepo.com, Generator: SVG Repo Mixer Tools -->
<svg height="800px" width="800px" version="1.1" id="Layer_1" xmlns="http://www.w3.org/2000/svg" xmlns:xlink="http://www.w3.org/1999/xlink" 
	 viewBox="0 0 511.999 511.999" xml:space="preserve">
<g>
	<path style="fill:#59A4FF;" d="M158.827,253.972c-2.377-4.121-5.5-7.299-8.627-9.105c-3.128-1.806-6.258-2.238-8.65-0.87
		l-46.263,26.355l-21.683,12.601c-4.785,2.736-4.81,11.619-0.056,19.863c2.38,4.119,5.506,7.296,8.634,9.102
		c3.128,1.806,6.259,2.241,8.651,0.878l46.256-26.359l21.683-12.601C163.563,271.103,163.589,262.21,158.827,253.972z"/>
	<path style="fill:#59A4FF;" d="M250.495,306.896c-2.377-4.121-5.5-7.299-8.628-9.105c-3.128-1.806-6.261-2.24-8.658-0.875
		l-46.256,26.359l-21.683,12.601c-4.785,2.736-4.81,11.62-0.056,19.863c2.38,4.119,5.504,7.295,8.631,9.1
		c3.128,1.806,6.258,2.24,8.654,0.88l46.256-26.359l21.683-12.601C255.232,324.028,255.257,315.135,250.495,306.896z"/>
	<path style="fill:#59A4FF;" d="M342.164,359.821c-2.38-4.123-5.506-7.302-8.635-9.109c-3.128-1.806-6.259-2.239-8.651-0.872
		L278.623,376.2l-21.683,12.601c-4.792,2.732-4.817,11.615-0.056,19.863c2.377,4.117,5.5,7.293,8.628,9.099
		c3.128,1.806,6.26,2.242,8.658,0.882l46.256-26.359l0,0l21.683-12.6C346.893,376.948,346.918,368.054,342.164,359.821z"/>
</g>
<g>
	<path style="fill:#9BC9FD;" d="M128.517,257.468c3.128,1.806,6.25,4.983,8.627,9.105c4.762,8.239,4.736,17.131-0.056,19.863
		l-46.256,26.359c-2.393,1.364-5.524,0.928-8.651-0.878c-3.128-1.806-6.253-4.982-8.634-9.102
		c-4.754-8.243-4.729-17.127,0.056-19.863l46.263-26.355C122.258,255.23,125.389,255.662,128.517,257.468z"/>
	<path style="fill:#9BC9FD;" d="M220.184,310.392c3.128,1.806,6.251,4.983,8.628,9.105c4.762,8.239,4.736,17.131-0.056,19.863
		L182.5,365.719c-2.396,1.361-5.527,0.926-8.654-0.88c-3.127-1.806-6.25-4.981-8.631-9.1c-4.754-8.243-4.729-17.127,0.056-19.863
		l46.256-26.359C213.923,308.151,217.056,308.586,220.184,310.392z"/>
	<path style="fill:#9BC9FD;" d="M320.48,372.422c4.754,8.233,4.729,17.127-0.056,19.863l-46.256,26.359
		c-2.396,1.361-5.529,0.925-8.658-0.882c-3.128-1.806-6.251-4.981-8.628-9.099c-4.762-8.247-4.736-17.131,0.056-19.863
		l46.256-26.359c2.392-1.368,5.524-0.935,8.651,0.872C314.974,365.119,318.1,368.299,320.48,372.422z"/>
</g>
<g>
	<path style="fill:#59A4FF;" d="M134.542,333.972c-2.377-4.121-5.5-7.299-8.627-9.105s-6.258-2.238-8.65-0.87l-46.263,26.355
		l-21.683,12.601c-4.785,2.736-4.81,11.619-0.056,19.863c2.38,4.119,5.506,7.296,8.634,9.102c3.128,1.806,6.259,2.241,8.651,0.878
		l46.256-26.359l21.683-12.601C139.279,351.103,139.304,342.21,134.542,333.972z"/>
	<path style="fill:#59A4FF;" d="M226.211,386.896c-2.377-4.121-5.5-7.299-8.628-9.105c-3.128-1.806-6.261-2.24-8.658-0.875
		l-46.256,26.359l-21.683,12.601c-4.785,2.736-4.81,11.62-0.056,19.863c2.38,4.119,5.504,7.295,8.631,9.1
		c3.128,1.806,6.258,2.24,8.654,0.88l46.256-26.359l21.683-12.601C230.947,404.028,230.972,395.135,226.211,386.896z"/>
	<path style="fill:#59A4FF;" d="M317.879,439.821c-2.38-4.123-5.506-7.302-8.635-9.109c-3.128-1.806-6.259-2.239-8.651-0.872
		L254.338,456.2l-21.683,12.601c-4.792,2.732-4.817,11.615-0.056,19.863c2.377,4.117,5.5,7.293,8.628,9.099
		c3.128,1.806,6.261,2.242,8.658,0.882l46.256-26.359l0,0l21.683-12.6C322.608,456.948,322.633,448.055,317.879,439.821z"/>
</g>
<g>
	<path style="fill:#9BC9FD;" d="M104.231,337.468c3.128,1.806,6.25,4.983,8.627,9.105c4.762,8.239,4.736,17.131-0.056,19.863
		l-46.255,26.358c-2.393,1.364-5.524,0.928-8.651-0.878c-3.128-1.806-6.253-4.982-8.634-9.102
		c-4.754-8.243-4.729-17.127,0.056-19.863l46.263-26.355C97.974,335.23,101.105,335.662,104.231,337.468z"/>
	<path style="fill:#9BC9FD;" d="M195.9,390.392c3.128,1.806,6.251,4.983,8.628,9.105c4.762,8.239,4.736,17.131-0.056,19.863
		l-46.256,26.359c-2.396,1.361-5.527,0.926-8.654-0.88c-3.127-1.806-6.25-4.981-8.631-9.1c-4.754-8.243-4.729-17.127,0.056-19.863
		l46.256-26.359C189.638,388.152,192.771,388.586,195.9,390.392z"/>
	<path style="fill:#9BC9FD;" d="M296.196,452.422c4.754,8.233,4.728,17.127-0.056,19.863l-46.256,26.359
		c-2.396,1.361-5.529,0.925-8.658-0.882c-3.128-1.806-6.251-4.981-8.628-9.099c-4.762-8.247-4.736-17.131,0.056-19.863
		l46.256-26.359c2.392-1.368,5.524-0.935,8.651,0.872C290.69,445.12,293.815,448.299,296.196,452.422z"/>
</g>
<g>
	<polygon style="fill:#FF9911;" points="292.991,379.714 326.212,360.408 192.557,492.694 159.336,511.999 	"/>
	<polygon style="fill:#FFEB9A;" points="228.409,342.428 261.629,323.122 326.212,360.408 292.991,379.714 	"/>
	<polygon style="fill:#FF9911;" points="275.638,275.101 308.86,255.795 261.629,323.122 228.409,342.428 	"/>
	<polygon style="fill:#FFEB9A;" points="203.247,233.305 236.467,213.999 308.86,255.795 275.638,275.101 	"/>
	<polygon style="fill:#FEDA44;" points="292.991,379.714 159.336,511.999 212.633,378.364 142.182,337.69 203.247,233.305 
		275.638,275.101 228.409,342.428 	"/>
</g>
<path style="fill:#ACABB1;" d="M403.26,160.191c-3.256-1.88-6.414-3.315-9.552-4.601c0.788-4.504,1.259-9.327,1.274-14.528
	c0.136-48.045-33.623-106.54-75.435-130.68c-21.035-12.145-40.088-13.27-53.85-5.273L238.696,20.8
	c-3.571-3.29-7.342-6.152-11.267-8.418c-11.05-6.38-21.057-6.973-28.284-2.773l-29.102,16.913
	c-13.439-5.223-25.474-4.772-34.673,0.574l-54.79,31.84c0.037-0.022,0.076-0.039,0.113-0.06
	c-11.411,6.566-18.497,20.608-18.555,40.597c-0.114,40.128,28.105,89.004,63.007,109.155l222.913,128.699
	c17.658,10.195,33.642,11.083,45.152,4.296c-0.055,0.032-0.103,0.078-0.159,0.111l54.79-31.84
	c11.35-6.596,18.389-20.623,18.446-40.557C466.4,229.229,438.182,180.352,403.26,160.191z"/>
<path style="fill:#C6C5CB;" d="M264.758,42.22c41.811,24.14,75.57,82.636,75.434,130.68c-0.015,5.202-0.486,10.025-1.274,14.528
	c3.138,1.286,6.296,2.721,9.552,4.601c34.922,20.162,63.14,69.039,63.026,109.144c-0.114,40.128-28.517,56.314-63.439,36.152
	L125.145,208.627c-34.902-20.151-63.121-69.028-63.007-109.156c0.114-40.105,28.516-56.292,63.418-36.14
	c2.462,1.421,4.863,3.014,7.245,4.709c0.001-0.365-0.038-0.73-0.037-1.095c0.071-25.231,17.918-35.402,39.876-22.724
	c7.167,4.138,13.851,10.214,19.658,17.382C201.988,31.733,230.789,22.608,264.758,42.22z"/>
</svg>